<svg width="650" height="359" viewBox="0 0 650 359" fill="none" xmlns="http://www.w3.org/2000/svg">
<g clip-path="url(#clip0_2_245)">
<path d="M334.471 357.163C324.195 358.674 313.795 359.176 303.421 358.661C278.407 357.4 253.806 350.135 232.782 336.477C223.461 330.42 214.569 322.979 209.744 312.984C203.195 299.41 205.486 282.226 214.837 270.403C218.248 266.139 222.444 262.565 227.199 259.873C227.903 259.475 228.623 259.093 229.351 258.726C237.274 254.747 246.173 253.121 254.993 254.038C269.989 255.674 283.829 264.821 291.825 277.599C298.948 288.994 301.43 302.438 302.893 315.913C303.168 318.452 303.406 320.998 303.636 323.529C302.361 330.863 300.357 338.052 297.654 344.988C297.516 345.326 297.404 345.674 297.317 346.028C298.849 349.347 300.306 352.697 301.69 356.077C302.99 356.781 304.446 357.149 305.926 357.147H334.409L334.471 357.163Z" fill="#F2F2F2"/>
<path d="M301.1 357.813C300.911 357.897 300.708 357.943 300.501 357.947C300.294 357.952 300.089 357.916 299.896 357.84C299.704 357.765 299.528 357.652 299.38 357.508C299.232 357.364 299.114 357.192 299.033 357.002C298.91 356.711 298.795 356.421 298.672 356.13C297.57 353.454 296.413 350.803 295.203 348.177C279.71 314.295 256.602 284.436 227.673 260.92C227.508 260.804 227.376 260.646 227.293 260.461C227.209 260.277 227.177 260.074 227.199 259.873C227.241 259.642 227.334 259.424 227.473 259.235C227.611 259.046 227.79 258.89 227.997 258.78C228.204 258.67 228.434 258.607 228.668 258.598C228.902 258.589 229.136 258.632 229.351 258.726C229.466 258.778 229.574 258.845 229.673 258.925C242.05 268.99 253.404 280.248 263.571 292.535C273.741 304.81 282.695 318.041 290.309 332.041C292.384 335.865 294.355 339.742 296.221 343.673C296.589 344.453 296.957 345.24 297.317 346.028C298.849 349.347 300.306 352.696 301.69 356.077C301.713 356.13 301.736 356.191 301.759 356.245C301.83 356.39 301.869 356.548 301.873 356.708C301.877 356.869 301.847 357.029 301.785 357.178C301.723 357.326 301.629 357.459 301.511 357.569C301.393 357.678 301.253 357.761 301.1 357.813Z" fill="white"/>
<path d="M199.519 256.952C216.016 256.952 229.389 243.599 229.389 227.127C229.389 210.655 216.016 197.302 199.519 197.302C183.022 197.302 169.649 210.655 169.649 227.127C169.649 243.599 183.022 256.952 199.519 256.952Z" fill="#4C5CF4"/>
<path d="M196.558 238.504C195.886 238.505 195.232 238.289 194.694 237.886L194.661 237.861L187.641 232.495C187.316 232.246 187.043 231.936 186.838 231.582C186.632 231.228 186.499 230.837 186.445 230.431C186.391 230.026 186.418 229.614 186.524 229.219C186.63 228.823 186.812 228.453 187.061 228.128C187.31 227.803 187.621 227.531 187.976 227.326C188.331 227.121 188.722 226.988 189.128 226.935C189.535 226.881 189.947 226.908 190.343 227.014C190.739 227.12 191.11 227.302 191.435 227.551L195.982 231.032L206.726 217.041C206.976 216.716 207.286 216.444 207.641 216.239C207.996 216.035 208.387 215.902 208.793 215.848C209.199 215.795 209.612 215.822 210.007 215.927C210.403 216.033 210.774 216.215 211.099 216.464L211.032 216.555L211.101 216.466C211.756 216.969 212.185 217.711 212.293 218.529C212.402 219.348 212.18 220.176 211.678 220.832L199.039 237.289C198.747 237.668 198.371 237.975 197.941 238.186C197.511 238.397 197.038 238.506 196.558 238.504Z" fill="white"/>
<path d="M649.088 359H0.911992C0.670587 358.999 0.439314 358.903 0.268862 358.732C0.0984095 358.562 0.00268555 358.33 0.00268555 358.089C0.00268555 357.848 0.0984095 357.617 0.268862 357.447C0.439314 357.276 0.670587 357.18 0.911992 357.179H649.088C649.329 357.18 649.561 357.276 649.731 357.447C649.902 357.617 649.997 357.848 649.997 358.089C649.997 358.33 649.902 358.562 649.731 358.732C649.561 358.903 649.329 358.999 649.088 359Z" fill="#3F3D56"/>
<path d="M126.792 103.962C139.033 103.962 148.957 94.0533 148.957 81.8305C148.957 69.6076 139.033 59.699 126.792 59.699C114.55 59.699 104.626 69.6076 104.626 81.8305C104.626 94.0533 114.55 103.962 126.792 103.962Z" fill="#2F2E41"/>
<path d="M109.49 69.8978C113.072 66.3214 113.798 61.2478 111.112 58.5655C108.425 55.8833 103.344 56.6081 99.7623 60.1844C96.1805 63.7608 95.4546 68.8344 98.1409 71.5167C100.827 74.1989 105.909 73.4741 109.49 69.8978Z" fill="#2F2E41"/>
<path d="M149.893 62.8696C151.386 59.3813 148.819 54.9428 144.161 52.9559C139.503 50.9691 134.517 52.1864 133.024 55.6748C131.532 59.1631 134.098 63.6016 138.757 65.5884C143.415 67.5752 148.401 66.358 149.893 62.8696Z" fill="#2F2E41"/>
<path d="M188.512 209.604C189.072 208.542 189.392 207.369 189.449 206.169C189.506 204.97 189.299 203.772 188.842 202.661C188.386 201.55 187.691 200.552 186.806 199.738C185.922 198.924 184.869 198.314 183.723 197.95L151.696 130.302L137.046 140.56L173.134 203.83C172.649 205.793 172.903 207.866 173.847 209.655C174.79 211.444 176.359 212.825 178.254 213.537C180.15 214.249 182.241 214.242 184.132 213.517C186.022 212.792 187.581 211.4 188.512 209.604V209.604Z" fill="#FFB8B8"/>
<path d="M159.041 141.588L142.031 149.183C141.547 149.399 141.022 149.508 140.492 149.503C139.962 149.499 139.439 149.38 138.959 149.155C138.479 148.93 138.053 148.605 137.71 148.201C137.368 147.797 137.116 147.324 136.973 146.815L131.957 128.956C130.864 126.477 130.8 123.667 131.779 121.141C132.757 118.615 134.7 116.58 137.179 115.482C139.658 114.384 142.473 114.312 145.005 115.282C147.537 116.253 149.581 118.186 150.688 120.658L160.645 136.245C160.93 136.692 161.116 137.194 161.189 137.719C161.262 138.243 161.221 138.777 161.068 139.284C160.916 139.791 160.656 140.259 160.306 140.657C159.956 141.054 159.525 141.372 159.041 141.588Z" fill="#CCCCCC"/>
<path d="M80.4842 216.311C81.6558 216.039 82.7536 215.515 83.7001 214.773C84.6467 214.032 85.4189 213.093 85.9625 212.022C86.5062 210.95 86.8079 209.773 86.8465 208.572C86.8851 207.372 86.6596 206.178 86.186 205.074L116.517 136.651L99.1663 132.288L74.8075 200.917C73.0028 201.834 71.5978 203.381 70.8588 205.264C70.1198 207.146 70.0981 209.234 70.7978 211.132C71.4975 213.029 72.8701 214.604 74.6553 215.559C76.4406 216.514 78.5145 216.781 80.4842 216.311H80.4842Z" fill="#FFB8B8"/>
<path d="M72.2158 340.333L81.039 343.54L97.6291 311.086L84.6065 306.353L72.2158 340.333Z" fill="#FFB8B8"/>
<path d="M95.072 357.907L67.3422 347.826L71.2431 337.128L88.2591 343.315C91.1006 344.348 93.4147 346.465 94.6924 349.202C95.97 351.939 96.1066 355.07 95.072 357.907Z" fill="#2F2E41"/>
<path d="M93.0858 321.657C92.5444 321.657 92.0097 321.537 91.5204 321.306L81.3804 316.51C80.5491 316.121 79.894 315.434 79.5441 314.587C79.1942 313.739 79.1748 312.791 79.4898 311.93L108.107 232.804C108.344 232.148 108.762 231.574 109.313 231.146C109.864 230.719 110.525 230.456 111.22 230.389C111.914 230.321 112.614 230.452 113.237 230.766C113.86 231.079 114.381 231.563 114.74 232.16L129.876 257.348C130.213 257.91 130.394 258.55 130.401 259.204C130.408 259.859 130.24 260.503 129.916 261.071L96.3026 319.804C95.9769 320.368 95.508 320.837 94.9432 321.162C94.3784 321.487 93.7377 321.658 93.0858 321.657Z" fill="#2F2E41"/>
<path d="M127.494 105.896C137.884 105.896 146.306 97.4872 146.306 87.1138C146.306 76.7403 137.884 68.331 127.494 68.331C117.105 68.331 108.683 76.7403 108.683 87.1138C108.683 97.4872 117.105 105.896 127.494 105.896Z" fill="#FFB8B8"/>
<path d="M154.107 172.512L120.8 163.366L103.085 127.99C102.234 126.29 101.832 124.402 101.918 122.504C102.003 120.606 102.573 118.761 103.574 117.145C104.574 115.528 105.972 114.194 107.634 113.269C109.296 112.344 111.167 111.858 113.07 111.858H139.57C142.321 111.856 144.975 112.87 147.022 114.704C154.131 121.062 169.066 139.393 154.251 172.192L154.107 172.512Z" fill="#CCCCCC"/>
<path d="M112.411 148.888L95.536 141.001C95.0559 140.777 94.6298 140.451 94.2869 140.048C93.9439 139.644 93.6921 139.171 93.5486 138.662C93.4051 138.152 93.3733 137.618 93.4553 137.095C93.5373 136.572 93.7313 136.073 94.0239 135.631L104.28 120.166C105.444 117.72 107.532 115.835 110.086 114.923C112.64 114.012 115.452 114.149 117.905 115.304C120.358 116.459 122.252 118.539 123.172 121.086C124.092 123.634 123.963 126.442 122.813 128.894L117.51 146.608C117.358 147.115 117.098 147.584 116.748 147.981C116.399 148.379 115.967 148.697 115.484 148.914C115 149.13 114.475 149.24 113.945 149.235C113.415 149.231 112.892 149.113 112.411 148.888Z" fill="#CCCCCC"/>
<path d="M132.828 349.201H142.218L146.685 313.038L132.826 313.039L132.828 349.201Z" fill="#FFB8B8"/>
<path d="M160.327 357.906L130.816 357.907L130.816 346.523L148.925 346.522C151.949 346.522 154.849 347.721 156.987 349.856C159.125 351.991 160.327 354.886 160.327 357.906Z" fill="#2F2E41"/>
<path d="M136.374 335.421C135.529 335.422 134.711 335.132 134.055 334.601C133.4 334.07 132.948 333.329 132.776 332.504C130.077 319.806 116.059 254.767 105.118 221.266C93.9864 187.181 112.944 171.656 116.858 168.89C117.275 168.596 117.606 168.197 117.817 167.734L120.66 161.489C120.955 160.844 121.429 160.297 122.026 159.914C122.624 159.531 123.318 159.327 124.028 159.327H124.051C145.365 159.454 152.53 166.163 154.622 169.041C154.93 169.47 155.142 169.961 155.241 170.479C155.341 170.998 155.326 171.532 155.199 172.044L141.713 227.598C141.63 227.942 141.611 228.299 141.657 228.651L155.075 329.519C155.139 330.004 155.106 330.497 154.978 330.969C154.85 331.441 154.628 331.883 154.327 332.269C154.026 332.655 153.651 332.977 153.224 333.216C152.797 333.456 152.327 333.608 151.84 333.664L136.807 335.396C136.663 335.412 136.518 335.421 136.374 335.421Z" fill="#2F2E41"/>
<path d="M107.728 75.2995C112.027 78.2577 117.129 79.8321 122.35 79.8113C120.488 81.1006 118.367 81.9715 116.136 82.364C123.077 83.8507 130.251 83.8909 137.209 82.4822C138.755 82.2346 140.247 81.7229 141.62 80.9694C142.304 80.588 142.9 80.0671 143.369 79.4407C143.838 78.8142 144.17 78.0962 144.343 77.3333C144.805 74.6961 142.747 72.3001 140.608 70.6854C137.334 68.2508 133.558 66.5734 129.555 65.7746C125.551 64.9758 121.42 65.0756 117.459 66.0666C114.874 66.734 112.283 67.8616 110.603 69.9352C108.924 72.0087 108.426 75.2053 110.027 77.3405L107.728 75.2995Z" fill="#2F2E41"/>
<path d="M453.032 156.771C458.531 156.771 462.989 152.32 462.989 146.829C462.989 141.339 458.531 136.888 453.032 136.888C447.533 136.888 443.075 141.339 443.075 146.829C443.075 152.32 447.533 156.771 453.032 156.771Z" fill="#4C5CF4"/>
<path d="M452.045 150.622C451.821 150.622 451.603 150.55 451.424 150.416L451.413 150.408L449.073 148.619C448.964 148.536 448.873 148.433 448.804 148.315C448.735 148.196 448.691 148.066 448.672 147.931C448.654 147.795 448.663 147.658 448.698 147.526C448.734 147.394 448.795 147.27 448.878 147.162C448.961 147.054 449.065 146.963 449.183 146.894C449.301 146.826 449.432 146.782 449.568 146.764C449.703 146.746 449.841 146.755 449.973 146.791C450.105 146.826 450.229 146.888 450.337 146.971L451.853 148.131L455.434 143.467C455.517 143.359 455.621 143.268 455.739 143.2C455.857 143.132 455.988 143.088 456.123 143.07C456.259 143.052 456.396 143.061 456.528 143.096C456.66 143.131 456.784 143.192 456.892 143.275L456.87 143.305L456.892 143.276C457.111 143.443 457.254 143.691 457.29 143.964C457.326 144.236 457.252 144.512 457.085 144.731L452.872 150.217C452.775 150.343 452.649 150.446 452.506 150.516C452.362 150.586 452.205 150.622 452.045 150.622Z" fill="white"/>
<path d="M453.032 185.831C458.531 185.831 462.989 181.38 462.989 175.889C462.989 170.399 458.531 165.948 453.032 165.948C447.533 165.948 443.075 170.399 443.075 175.889C443.075 181.38 447.533 185.831 453.032 185.831Z" fill="#4C5CF4"/>
<path d="M452.045 179.682C451.821 179.682 451.603 179.61 451.424 179.476L451.413 179.468L449.073 177.679C448.964 177.596 448.873 177.493 448.804 177.375C448.735 177.256 448.691 177.126 448.672 176.991C448.654 176.855 448.663 176.718 448.698 176.586C448.734 176.454 448.795 176.33 448.878 176.222C448.961 176.114 449.065 176.023 449.183 175.954C449.301 175.886 449.432 175.842 449.568 175.824C449.703 175.806 449.841 175.815 449.973 175.851C450.105 175.886 450.229 175.948 450.337 176.031L451.853 177.191L455.434 172.527C455.517 172.419 455.621 172.328 455.739 172.26C455.857 172.192 455.988 172.148 456.123 172.13C456.259 172.112 456.396 172.121 456.528 172.156C456.66 172.191 456.784 172.252 456.892 172.335L456.87 172.365L456.892 172.336C457.111 172.503 457.254 172.751 457.29 173.024C457.326 173.296 457.252 173.572 457.085 173.791L452.872 179.277C452.775 179.403 452.649 179.506 452.506 179.576C452.362 179.646 452.205 179.682 452.045 179.682Z" fill="white"/>
<path d="M458.393 219.479C463.892 219.479 468.35 215.028 468.35 209.538C468.35 204.047 463.892 199.596 458.393 199.596C452.894 199.596 448.437 204.047 448.437 209.538C448.437 215.028 452.894 219.479 458.393 219.479Z" fill="#4C5CF4"/>
<path d="M457.406 213.33C457.182 213.331 456.964 213.258 456.785 213.124L456.774 213.116L454.434 211.327C454.325 211.244 454.234 211.141 454.165 211.023C454.096 210.905 454.052 210.774 454.034 210.639C454.015 210.504 454.024 210.366 454.059 210.234C454.095 210.102 454.156 209.979 454.239 209.87C454.322 209.762 454.426 209.671 454.544 209.603C454.663 209.534 454.793 209.49 454.929 209.472C455.064 209.455 455.202 209.464 455.334 209.499C455.466 209.535 455.59 209.596 455.698 209.679L457.214 210.84L460.796 206.176C460.879 206.068 460.982 205.977 461.1 205.909C461.219 205.84 461.349 205.796 461.484 205.778C461.62 205.76 461.757 205.769 461.889 205.805C462.021 205.84 462.145 205.901 462.253 205.984L462.231 206.014L462.254 205.984C462.472 206.152 462.615 206.399 462.651 206.672C462.687 206.945 462.613 207.221 462.446 207.439L458.233 212.925C458.136 213.052 458.01 213.154 457.867 213.224C457.724 213.294 457.566 213.331 457.406 213.33Z" fill="white"/>
<path d="M554.403 292.542C554.3 292.542 554.235 292.539 554.212 292.538L541.851 292.539V290.719H554.257C554.544 290.73 560.405 290.895 565.804 284.353C573.851 274.603 580.458 250.468 566.243 190.853C547.128 110.693 563.071 39.8761 570.812 13.1499C571.193 11.8276 571.262 10.4349 571.011 9.08178C570.761 7.72866 570.199 6.45222 569.37 5.35329C568.54 4.25436 567.466 3.36306 566.233 2.74982C564.999 2.13658 563.639 1.8182 562.261 1.81984H377.653C376.25 1.82172 374.866 2.15399 373.616 2.7897C372.365 3.42541 371.282 4.34665 370.454 5.47863C367.175 9.98293 362.674 18.6361 359.858 34.2824L358.064 33.9608C360.942 17.9745 365.588 9.06677 368.98 4.40875C369.977 3.04477 371.282 1.9347 372.789 1.16867C374.296 0.402645 375.962 0.00224273 377.653 -1.79353e-05H562.261C563.922 -0.00161369 565.56 0.382408 567.047 1.12171C568.533 1.86101 569.827 2.93533 570.826 4.25979C571.826 5.58426 572.503 7.12258 572.804 8.75322C573.105 10.3839 573.023 12.0621 572.563 13.6555C564.861 40.2431 549.001 110.693 568.016 190.432C582.431 250.885 575.501 275.544 567.15 285.584C561.641 292.206 555.571 292.542 554.403 292.542Z" fill="#E6E6E6"/>
<path d="M521.141 325.754C521.037 325.754 520.973 325.751 520.95 325.75L508.588 325.751V323.932H520.995C521.283 323.94 527.142 324.107 532.542 317.565C540.588 307.816 547.196 283.68 532.98 224.065C513.866 143.905 529.808 73.0883 537.549 46.362C537.931 45.0397 537.999 43.647 537.749 42.2939C537.498 40.9408 536.936 39.6644 536.107 38.5654C535.278 37.4665 534.204 36.5752 532.97 35.962C531.736 35.3487 530.377 35.0303 528.999 35.032H344.391C342.987 35.0338 341.604 35.3661 340.353 36.0018C339.102 36.6375 338.019 37.5588 337.192 38.6907C333.912 43.195 329.412 51.8482 326.596 67.4946L324.802 67.1729C327.679 51.1866 332.326 42.2789 335.718 37.6209C336.714 36.2569 338.019 35.1468 339.526 34.3808C341.033 33.6148 342.7 33.2144 344.391 33.2121H528.999C530.659 33.2105 532.298 33.5945 533.784 34.3338C535.271 35.0731 536.565 36.1475 537.564 37.4719C538.563 38.7964 539.24 40.3347 539.541 41.9654C539.843 43.596 539.76 45.2743 539.301 46.8676C531.599 73.4553 515.739 143.905 534.754 223.644C549.169 284.097 542.239 308.756 533.887 318.796C528.378 325.419 522.309 325.754 521.141 325.754Z" fill="#CCCCCC"/>
<path d="M501.49 256.86C482.473 177.121 498.335 106.665 506.04 80.0832C506.498 78.4898 506.58 76.8118 506.278 75.1815C505.976 73.5512 505.299 72.0132 504.301 70.6888C503.302 69.3644 502.008 68.2899 500.522 67.5499C499.036 66.81 497.399 66.4249 495.738 66.425H311.126C309.436 66.4267 307.77 66.8264 306.263 67.5918C304.757 68.3572 303.452 69.4666 302.456 70.8299C295.004 81.0621 279.54 114.993 296.811 208.88C306.048 259.108 305.91 293.353 302.893 315.913C301.2 328.615 298.588 337.608 296.221 343.673L295.969 344.315C295.47 345.542 295.21 346.853 295.203 348.177C295.186 349.672 295.486 351.154 296.084 352.525C296.682 353.896 297.564 355.125 298.672 356.13C299.395 356.806 300.213 357.373 301.1 357.813C301.837 358.188 302.616 358.473 303.421 358.662C304.241 358.861 305.082 358.961 305.926 358.96H487.689C487.712 358.96 487.773 358.967 487.88 358.967C489.044 358.967 495.118 358.631 500.625 352.008C508.973 341.967 515.904 317.312 501.49 256.86ZM499.277 350.777C493.877 357.323 488.018 357.155 487.735 357.147H305.926C304.47 357.147 303.037 356.79 301.751 356.109C300.465 355.428 299.366 354.443 298.55 353.24C297.832 352.199 297.349 351.015 297.136 349.77C296.923 348.524 296.985 347.247 297.317 346.028C297.404 345.674 297.516 345.326 297.654 344.988C300.357 338.052 302.361 330.863 303.635 323.529C307.955 300.014 308.759 263.727 298.604 208.551C281.463 115.361 296.62 81.9415 303.926 71.9005C304.755 70.7702 305.839 69.8504 307.09 69.2154C308.34 68.5804 309.723 68.248 311.126 68.2451H495.738C497.115 68.2441 498.474 68.5628 499.707 69.1761C500.94 69.7893 502.013 70.6802 502.842 71.7785C503.671 72.8768 504.233 74.1525 504.483 75.5049C504.734 76.8572 504.666 78.2491 504.286 79.5709C496.543 106.298 480.604 177.121 499.721 257.28C513.936 316.892 507.326 341.027 499.277 350.777Z" fill="#3F3D56"/>
<path d="M413.787 153.253H318.673C316.739 153.253 314.885 152.487 313.518 151.121C312.15 149.756 311.382 147.905 311.382 145.974C311.382 144.044 312.15 142.192 313.518 140.827C314.885 139.462 316.739 138.695 318.673 138.695H413.787C415.72 138.695 417.575 139.462 418.942 140.827C420.309 142.192 421.077 144.044 421.077 145.974C421.077 147.905 420.309 149.756 418.942 151.121C417.575 152.487 415.72 153.253 413.787 153.253Z" fill="#CCCCCC"/>
<path d="M413.787 184.608H318.673C316.739 184.608 314.885 183.841 313.518 182.476C312.15 181.11 311.382 179.259 311.382 177.328C311.382 175.398 312.15 173.546 313.518 172.181C314.885 170.816 316.739 170.049 318.673 170.049H413.787C415.72 170.049 417.575 170.816 418.942 172.181C420.309 173.546 421.077 175.398 421.077 177.328C421.077 179.259 420.309 181.11 418.942 182.476C417.575 183.841 415.72 184.608 413.787 184.608Z" fill="#CCCCCC"/>
<path d="M421.446 216.727H326.332C324.398 216.727 322.544 215.96 321.177 214.595C319.809 213.229 319.041 211.378 319.041 209.447C319.041 207.517 319.809 205.665 321.177 204.3C322.544 202.935 324.398 202.168 326.332 202.168H421.446C423.379 202.168 425.234 202.935 426.601 204.3C427.968 205.665 428.736 207.517 428.736 209.447C428.736 211.378 427.968 213.229 426.601 214.595C425.234 215.96 423.379 216.727 421.446 216.727Z" fill="#CCCCCC"/>
<path d="M426.807 250.375H331.693C329.759 250.375 327.905 249.608 326.538 248.243C325.171 246.878 324.403 245.026 324.403 243.096C324.403 241.165 325.171 239.313 326.538 237.948C327.905 236.583 329.759 235.816 331.693 235.816H426.807C428.741 235.816 430.595 236.583 431.962 237.948C433.329 239.313 434.097 241.165 434.097 243.096C434.097 245.026 433.329 246.878 431.962 248.243C430.595 249.608 428.741 250.375 426.807 250.375Z" fill="#CCCCCC"/>
<path d="M426.847 96.732H358.5C357.542 96.733 356.593 96.5454 355.707 96.18C354.822 95.8146 354.017 95.2786 353.34 94.6025C352.662 93.9265 352.124 93.1237 351.757 92.24C351.39 91.3564 351.202 90.4092 351.202 89.4526C351.202 88.496 351.39 87.5488 351.757 86.6652C352.124 85.7815 352.662 84.9787 353.34 84.3027C354.017 83.6266 354.822 83.0906 355.707 82.7252C356.593 82.3598 357.542 82.1722 358.5 82.1732H426.847C428.781 82.1732 430.635 82.9402 432.003 84.3053C433.37 85.6704 434.138 87.522 434.138 89.4526C434.138 91.3832 433.37 93.2347 432.003 94.5999C430.635 95.965 428.781 96.732 426.847 96.732Z" fill="#4C5CF4"/>
<path d="M464.52 253.037C470.019 253.037 474.477 248.586 474.477 243.096C474.477 237.605 470.019 233.154 464.52 233.154C459.021 233.154 454.564 237.605 454.564 243.096C454.564 248.586 459.021 253.037 464.52 253.037Z" fill="#CCCCCC"/>
<path d="M431.402 283.259H336.288C334.355 283.259 332.501 282.492 331.133 281.127C329.766 279.761 328.998 277.91 328.998 275.979C328.998 274.049 329.766 272.197 331.133 270.832C332.501 269.467 334.355 268.7 336.288 268.7H431.402C433.336 268.7 435.19 269.467 436.558 270.832C437.925 272.197 438.693 274.049 438.693 275.979C438.693 277.91 437.925 279.761 436.558 281.127C435.19 282.492 433.336 283.259 431.402 283.259Z" fill="#CCCCCC"/>
<path d="M469.116 285.921C474.615 285.921 479.073 281.47 479.073 275.979C479.073 270.489 474.615 266.038 469.116 266.038C463.617 266.038 459.159 270.489 459.159 275.979C459.159 281.47 463.617 285.921 469.116 285.921Z" fill="#CCCCCC"/>
</g>
<defs>
<clipPath id="clip0_2_245">
<rect width="650" height="359" fill="white"/>
</clipPath>
</defs>
</svg>
